<?xml version="1.0" encoding="UTF-8" standalone="no"?>
<!-- Created with Inkscape (http://www.inkscape.org/) -->

<svg
   xmlns:dc="http://purl.org/dc/elements/1.1/"
   xmlns:cc="http://creativecommons.org/ns#"
   xmlns:rdf="http://www.w3.org/1999/02/22-rdf-syntax-ns#"
   xmlns:svg="http://www.w3.org/2000/svg"
   xmlns="http://www.w3.org/2000/svg"
   xmlns:sodipodi="http://sodipodi.sourceforge.net/DTD/sodipodi-0.dtd"
   xmlns:inkscape="http://www.inkscape.org/namespaces/inkscape"
   id="svg2"
   version="1.1"
   inkscape:version="0.48.4 r9939"
   width="740"
   height="100"
   xml:space="preserve"
   sodipodi:docname="ufsc_foot.pdf"><metadata
     id="metadata8"><rdf:RDF><cc:Work
         rdf:about=""><dc:format>image/svg+xml</dc:format><dc:type
           rdf:resource="http://purl.org/dc/dcmitype/StillImage" /><dc:title></dc:title></cc:Work></rdf:RDF></metadata><defs
     id="defs6" /><sodipodi:namedview
     pagecolor="#ffffff"
     bordercolor="#666666"
     borderopacity="1"
     objecttolerance="10"
     gridtolerance="10"
     guidetolerance="10"
     inkscape:pageopacity="0"
     inkscape:pageshadow="2"
     inkscape:window-width="1869"
     inkscape:window-height="1056"
     id="namedview4"
     showgrid="false"
     inkscape:zoom="1.0465761"
     inkscape:cx="138.08813"
     inkscape:cy="256.11889"
     inkscape:window-x="51"
     inkscape:window-y="24"
     inkscape:window-maximized="1"
     inkscape:current-layer="g10" /><g
     id="g10"
     inkscape:groupmode="layer"
     inkscape:label="ufsc_logo"
     transform="matrix(1.25,0,0,-1.25,0,100)"><path
       inkscape:connector-curvature="0"
       id="path14"
       style="fill:#96979b;fill-opacity:1;fill-rule:evenodd;stroke:none"
       d="m 124.10294,54.689528 -33.642403,0.08375 0.04334,-11.246257 22.471023,-0.07277 0,-11.084182 -22.471023,-0.06419 -0.04275,-22.4502148 -11.219168,0 0,56.1130488 44.860941,0 0,-11.27987 z m 5.59388,-44.7810658 9.7e-4,11.2226538 c 0,0.106058 0.20996,0.0023 0.31558,0.0046 l 27.79582,0.01258 c 3.1031,0 5.61901,2.516072 5.61901,5.618712 0,3.102331 -2.51591,5.618666 -5.61901,5.618666 L 146.5726,32.25318 c -9.32061,0 -16.87968,7.559186 -16.87968,16.87943 0,9.32022 7.55907,16.879394 16.87968,16.879394 l 28.00579,-0.03741 6.3e-4,-11.220994 -6.3e-4,0 -28.00579,-4.23e-4 c -3.10246,0 -5.61838,-2.516415 -5.61838,-5.618701 0,-3.102331 2.51592,-5.618758 5.61838,-5.618758 l 11.23677,0.132716 c 9.32059,0 16.87966,-7.559529 16.87966,-16.879452 0,-9.320243 -7.55907,-16.8794178 -16.87966,-16.8794178 l -28.11267,0.01761 z m 73.14398,44.8456968 22.27738,0 0,11.25852 -22.278,-0.01751 0,0.01751 c -12.40171,0 -22.45846,-10.056997 -22.45783,-22.45812 l 6.3e-4,-0.03741 0,-11.107752 -6.3e-4,-0.04336 C 180.38172,19.966814 190.43847,9.9106742 202.84018,9.9106742 l 0,0.01761 22.278,-0.01761 0,11.2596988 -22.27738,0 c -6.20494,0 -11.2374,5.032292 -11.2374,11.237629 l 0,11.107752 c 0,6.205338 5.03246,11.238351 11.2374,11.238351 z M 68.018625,32.36116 c 0,-12.397736 -10.052992,-22.4504668 -22.450462,-22.4504668 -12.396281,0 -22.449024,10.0527308 -22.449024,22.4504668 l 0,33.651519 11.220175,0 0,-33.652274 c 0,-6.200967 5.028376,-11.229289 11.229353,-11.229289 6.200897,0 11.229471,5.028322 11.229471,11.229289 l 0,33.656187 11.220487,0 0,-33.655432" /><text
       xml:space="preserve"
       style="font-size:85.31342316px;font-style:normal;font-variant:normal;font-weight:600;font-stretch:normal;line-height:125%;letter-spacing:0px;word-spacing:0px;fill:#96979b;fill-opacity:1;stroke:none;font-family:FreeSans;-inkscape-font-specification:FreeSans Semi-Bold"
       x="252.87546"
       y="-41.773277"
       id="text5878"
       sodipodi:linespacing="125%"
       transform="scale(0.92022826,-1.0866869)"><tspan
         sodipodi:role="line"
         id="tspan5880"
         x="252.87546"
         y="-41.773277"
         style="font-size:25.80208588px;font-style:normal;font-variant:normal;font-weight:600;font-stretch:normal;letter-spacing:0px;word-spacing:-1.09114313px;fill:#96979b;fill-opacity:1;font-family:FreeSans;-inkscape-font-specification:FreeSans Semi-Bold">UNIVERSIDADE FEDERAL</tspan><tspan
         sodipodi:role="line"
         x="252.87546"
         y="-9.5206699"
         style="font-size:25.80208588px;font-style:normal;font-variant:normal;font-weight:600;font-stretch:normal;letter-spacing:0px;word-spacing:-1.09114313px;fill:#96979b;fill-opacity:1;font-family:FreeSans;-inkscape-font-specification:FreeSans Semi-Bold"
         id="tspan5903">DE SANTA CATARINA</tspan></text>
</g></svg>